<svg xmlns="http://www.w3.org/2000/svg" viewBox="0 0 800 1000" width="800" height="1000"><defs><pattern id="p" width="208" height="208" patternUnits="userSpaceOnUse"><rect width="208" height="208" fill="#7fa7c9"/><g transform="scale(2.6)"><circle cx="40" cy="40" r="24" fill="none" stroke="#596b7b" stroke-width="4"/><circle cx="40" cy="40" r="12" fill="none" stroke="#c9902e" stroke-width="3"/><circle cx="0" cy="0" r="10" fill="#596b7b" opacity=".5"/><circle cx="80" cy="80" r="10" fill="#596b7b" opacity=".5"/><circle cx="80" cy="0" r="10" fill="#596b7b" opacity=".5"/><circle cx="0" cy="80" r="10" fill="#596b7b" opacity=".5"/></g></pattern><pattern id="b" width="64" height="64" patternUnits="userSpaceOnUse"><rect width="64" height="64" fill="#536d83"/><g transform="scale(0.8)"><path d="M40 6 74 40 40 74 6 40Z" fill="none" stroke="#c9902e" stroke-width="5"/><path d="M40 26 54 40 40 54 26 40Z" fill="#c9902e"/></g></pattern><linearGradient id="f" x1="0" x2="800" gradientUnits="userSpaceOnUse"><stop offset="0" stop-color="#000" stop-opacity="0.14"/><stop offset="0.16666666666666666" stop-color="#fff" stop-opacity="0.1"/><stop offset="0.3333333333333333" stop-color="#000" stop-opacity="0.14"/><stop offset="0.5" stop-color="#fff" stop-opacity="0.1"/><stop offset="0.6666666666666666" stop-color="#000" stop-opacity="0.14"/><stop offset="0.8333333333333334" stop-color="#fff" stop-opacity="0.1"/><stop offset="1" stop-color="#000" stop-opacity="0.14"/></linearGradient></defs>
<rect width="800" height="1000" fill="url(#p)"/><circle cx="0" cy="700" r="40" fill="#536d83"/><circle cx="80" cy="700" r="40" fill="#536d83"/><circle cx="160" cy="700" r="40" fill="#536d83"/><circle cx="240" cy="700" r="40" fill="#536d83"/><circle cx="320" cy="700" r="40" fill="#536d83"/><circle cx="400" cy="700" r="40" fill="#536d83"/><circle cx="480" cy="700" r="40" fill="#536d83"/><circle cx="560" cy="700" r="40" fill="#536d83"/><circle cx="640" cy="700" r="40" fill="#536d83"/><circle cx="720" cy="700" r="40" fill="#536d83"/><circle cx="800" cy="700" r="40" fill="#536d83"/><rect y="700" width="800" height="300" fill="url(#b)"/><rect y="612" width="800" height="6" fill="#c9902e"/><circle cx="0" cy="640" r="7" fill="#c9902e"/><circle cx="40" cy="652" r="7" fill="#c9902e"/><circle cx="80" cy="640" r="7" fill="#c9902e"/><circle cx="120" cy="652" r="7" fill="#c9902e"/><circle cx="160" cy="640" r="7" fill="#c9902e"/><circle cx="200" cy="652" r="7" fill="#c9902e"/><circle cx="240" cy="640" r="7" fill="#c9902e"/><circle cx="280" cy="652" r="7" fill="#c9902e"/><circle cx="320" cy="640" r="7" fill="#c9902e"/><circle cx="360" cy="652" r="7" fill="#c9902e"/><circle cx="400" cy="640" r="7" fill="#c9902e"/><circle cx="440" cy="652" r="7" fill="#c9902e"/><circle cx="480" cy="640" r="7" fill="#c9902e"/><circle cx="520" cy="652" r="7" fill="#c9902e"/><circle cx="560" cy="640" r="7" fill="#c9902e"/><circle cx="600" cy="652" r="7" fill="#c9902e"/><circle cx="640" cy="640" r="7" fill="#c9902e"/><circle cx="680" cy="652" r="7" fill="#c9902e"/><circle cx="720" cy="640" r="7" fill="#c9902e"/><circle cx="760" cy="652" r="7" fill="#c9902e"/><circle cx="800" cy="640" r="7" fill="#c9902e"/><rect width="800" height="1000" fill="url(#f)"/>
</svg>