<svg xmlns="http://www.w3.org/2000/svg" viewBox="0 0 800 1000" width="800" height="1000"><defs><pattern id="p" width="80" height="80" patternUnits="userSpaceOnUse"><rect width="80" height="80" fill="#f4f1ea"/><g transform="scale(1)"><g fill="#9a938d"><circle cx="20" cy="20" r="4"/><circle cx="60" cy="60" r="4"/></g><g fill="#f6efe0"><circle cx="20" cy="12" r="2.5"/><circle cx="60" cy="52" r="2.5"/></g></g></pattern><pattern id="d" width="56" height="56" patternUnits="userSpaceOnUse"><rect width="56" height="56" fill="#f5f0e4"/><g transform="scale(0.7)"><rect width="22" height="80" fill="#f4f1ea"/><rect x="34" width="4" height="80" fill="#9a938d"/><rect x="50" width="4" height="80" fill="#9a938d"/></g></pattern><pattern id="t" width="32" height="32" patternUnits="userSpaceOnUse"><rect width="32" height="32" fill="#9f9d98"/><g transform="scale(0.4)"><rect width="22" height="80" fill="#878581"/><rect x="34" width="4" height="80" fill="#a9a7a2"/><rect x="50" width="4" height="80" fill="#a9a7a2"/></g></pattern></defs>
<rect width="800" height="1000" fill="#f9f5ef"/>
<g transform="rotate(2 400 330)"><rect x="130" y="164" width="560" height="360" rx="6" fill="#000" opacity=".12"/><rect x="120" y="150" width="560" height="360" rx="6" fill="url(#p)"/><rect x="120" y="150" width="560" height="43.199999999999996" rx="6" fill="#fff" opacity=".18"/><rect x="120" y="496" width="560" height="14" fill="#000" opacity=".12"/></g>
<g transform="rotate(2 400 330)"><rect x="120" y="470" width="560" height="40" fill="#f6efe0" opacity=".85"/></g>
<circle cx="700" cy="110" r="46" fill="#f6efe0" opacity=".9"/><circle cx="700" cy="110" r="30" fill="none" stroke="#f7f1e8" stroke-width="3" stroke-dasharray="3 6"/>
</svg>