<svg xmlns="http://www.w3.org/2000/svg" viewBox="0 0 1600 800" width="1600" height="800" preserveAspectRatio="xMidYMid slice"><defs><linearGradient id="g" x2="1"><stop offset=".3" stop-color="#3b1420"/><stop offset="1" stop-color="#2c0f18"/></linearGradient></defs><rect width="1600" height="800" fill="url(#g)"/><defs><pattern id="p0" width="72" height="72" patternUnits="userSpaceOnUse"><rect width="72" height="72" fill="#5e1626"/><g transform="scale(0.9)"><path d="M40 6 74 40 40 74 6 40Z" fill="none" stroke="#b79292" stroke-width="5"/><path d="M40 26 54 40 40 54 26 40Z" fill="#d8ae5a"/></g></pattern><linearGradient id="f0" x1="672" x2="944" gradientUnits="userSpaceOnUse"><stop offset="0" stop-color="#000" stop-opacity="0.14"/><stop offset="0.125" stop-color="#fff" stop-opacity="0.1"/><stop offset="0.25" stop-color="#000" stop-opacity="0.14"/><stop offset="0.375" stop-color="#fff" stop-opacity="0.1"/><stop offset="0.5" stop-color="#000" stop-opacity="0.14"/><stop offset="0.625" stop-color="#fff" stop-opacity="0.1"/><stop offset="0.75" stop-color="#000" stop-opacity="0.14"/><stop offset="0.875" stop-color="#fff" stop-opacity="0.1"/><stop offset="1" stop-color="#000" stop-opacity="0.14"/></linearGradient></defs>
<path d="M672 -20C632 320 712 560 682 820L954 820C984 560 904 320 944 -20Z" fill="url(#p0)"/>
<path d="M672 -20C632 320 712 560 682 820L954 820C984 560 904 320 944 -20Z" fill="url(#f0)"/>
<path d="M944 -20C904 320 984 560 954 820" stroke="#d8ae5a" stroke-width="8" fill="none"/><defs><pattern id="p1" width="72" height="72" patternUnits="userSpaceOnUse"><rect width="72" height="72" fill="#c9c6c0"/><g transform="scale(0.9)"><circle cx="40" cy="40" r="24" fill="none" stroke="#827c76" stroke-width="4"/><circle cx="40" cy="40" r="12" fill="none" stroke="#d8ae5a" stroke-width="3"/><circle cx="0" cy="0" r="10" fill="#827c76" opacity=".5"/><circle cx="80" cy="80" r="10" fill="#827c76" opacity=".5"/><circle cx="80" cy="0" r="10" fill="#827c76" opacity=".5"/><circle cx="0" cy="80" r="10" fill="#827c76" opacity=".5"/></g></pattern><linearGradient id="f1" x1="912" x2="1184" gradientUnits="userSpaceOnUse"><stop offset="0" stop-color="#000" stop-opacity="0.14"/><stop offset="0.125" stop-color="#fff" stop-opacity="0.1"/><stop offset="0.25" stop-color="#000" stop-opacity="0.14"/><stop offset="0.375" stop-color="#fff" stop-opacity="0.1"/><stop offset="0.5" stop-color="#000" stop-opacity="0.14"/><stop offset="0.625" stop-color="#fff" stop-opacity="0.1"/><stop offset="0.75" stop-color="#000" stop-opacity="0.14"/><stop offset="0.875" stop-color="#fff" stop-opacity="0.1"/><stop offset="1" stop-color="#000" stop-opacity="0.14"/></linearGradient></defs>
<path d="M912 -20C952 320 872 560 922 820L1194 820C1144 560 1224 320 1184 -20Z" fill="url(#p1)"/>
<path d="M912 -20C952 320 872 560 922 820L1194 820C1144 560 1224 320 1184 -20Z" fill="url(#f1)"/>
<path d="M1184 -20C1224 320 1144 560 1194 820" stroke="#d8ae5a" stroke-width="8" fill="none"/><defs><pattern id="p2" width="72" height="72" patternUnits="userSpaceOnUse"><rect width="72" height="72" fill="#6b7a3a"/><g transform="scale(0.9)"><rect width="22" height="80" fill="#bcbf9b"/><rect x="34" width="4" height="80" fill="#d8ae5a"/><rect x="50" width="4" height="80" fill="#d8ae5a"/></g></pattern><linearGradient id="f2" x1="1152" x2="1424" gradientUnits="userSpaceOnUse"><stop offset="0" stop-color="#000" stop-opacity="0.14"/><stop offset="0.125" stop-color="#fff" stop-opacity="0.1"/><stop offset="0.25" stop-color="#000" stop-opacity="0.14"/><stop offset="0.375" stop-color="#fff" stop-opacity="0.1"/><stop offset="0.5" stop-color="#000" stop-opacity="0.14"/><stop offset="0.625" stop-color="#fff" stop-opacity="0.1"/><stop offset="0.75" stop-color="#000" stop-opacity="0.14"/><stop offset="0.875" stop-color="#fff" stop-opacity="0.1"/><stop offset="1" stop-color="#000" stop-opacity="0.14"/></linearGradient></defs>
<path d="M1152 -20C1112 320 1192 560 1162 820L1434 820C1464 560 1384 320 1424 -20Z" fill="url(#p2)"/>
<path d="M1152 -20C1112 320 1192 560 1162 820L1434 820C1464 560 1384 320 1424 -20Z" fill="url(#f2)"/>
<path d="M1424 -20C1384 320 1464 560 1434 820" stroke="#d8ae5a" stroke-width="8" fill="none"/><defs><pattern id="p3" width="72" height="72" patternUnits="userSpaceOnUse"><rect width="72" height="72" fill="#d9a5a0"/><g transform="scale(0.9)"><rect x="8" y="8" width="64" height="64" fill="none" stroke="#8b6a65" stroke-width="4"/><circle cx="40" cy="40" r="14" fill="#8b6a65"/><circle cx="40" cy="40" r="6" fill="#d8ae5a"/></g></pattern><linearGradient id="f3" x1="1392" x2="1664" gradientUnits="userSpaceOnUse"><stop offset="0" stop-color="#000" stop-opacity="0.14"/><stop offset="0.125" stop-color="#fff" stop-opacity="0.1"/><stop offset="0.25" stop-color="#000" stop-opacity="0.14"/><stop offset="0.375" stop-color="#fff" stop-opacity="0.1"/><stop offset="0.5" stop-color="#000" stop-opacity="0.14"/><stop offset="0.625" stop-color="#fff" stop-opacity="0.1"/><stop offset="0.75" stop-color="#000" stop-opacity="0.14"/><stop offset="0.875" stop-color="#fff" stop-opacity="0.1"/><stop offset="1" stop-color="#000" stop-opacity="0.14"/></linearGradient></defs>
<path d="M1392 -20C1432 320 1352 560 1402 820L1674 820C1624 560 1704 320 1664 -20Z" fill="url(#p3)"/>
<path d="M1392 -20C1432 320 1352 560 1402 820L1674 820C1624 560 1704 320 1664 -20Z" fill="url(#f3)"/>
<path d="M1664 -20C1704 320 1624 560 1674 820" stroke="#d8ae5a" stroke-width="8" fill="none"/><path d="M96 800V280a224.00000000000003 224.00000000000003 0 0 1 448.00000000000006 0V800" fill="none" stroke="#fff" stroke-opacity=".12" stroke-width="3"/></svg>